# Rhino

mtllib 10cm.mtl
usemtl diffuse_Black
v 0.0017156798858195543 0 -0.0015771192265674472
v 0.0017156798858195543 9.9984226226806641 -0.0015771192265674472
v 10 0 -0.0015771192265674472
v 10 9.9984226226806641 -0.0015771192265674472
v 10 0 -0.0015771192265674472
v 10 9.9984226226806641 -0.0015771192265674472
v 10 0 -10
v 10 9.9984226226806641 -10
v 10 0 -10
v 10 9.9984226226806641 -10
v 0.0017156798858195543 0 -10
v 0.0017156798858195543 9.9984226226806641 -10
v 0.0017156798858195543 0 -10
v 0.0017156798858195543 9.9984226226806641 -10
v 0.0017156798858195543 0 -0.0015771192265674472
v 0.0017156798858195543 9.9984226226806641 -0.0015771192265674472
v 0.0017156798858195543 0 -0.0015771192265674472
v 10 0 -0.0015771192265674472
v 10 0 -10
v 0.0017156798858195543 0 -10
v 0.0017156798858195543 9.9984226226806641 -0.0015771192265674472
v 10 9.9984226226806641 -0.0015771192265674472
v 10 9.9984226226806641 -10
v 0.0017156798858195543 9.9984226226806641 -10
vt 0 0
vt 0 0.66666775941848755
vt 0.24999827146530151 0
vt 0.24999827146530151 0.66666775941848755
vt 0.24999827146530151 0
vt 0.24999827146530151 0.66666775941848755
vt 0.5 0
vt 0.5 0.66666775941848755
vt 0.5 0
vt 0.5 0.66666775941848755
vt 0.74999827146530151 0
vt 0.74999827146530151 0.66666775941848755
vt 0.74999827146530151 0
vt 0.74999827146530151 0.66666775941848755
vt 1 0
vt 1 0.66666775941848755
vt 0.25000172853469849 1
vt 0.25000172853469849 0.66666841506958008
vt 0 0.66666841506958008
vt 0 1
vt 1 0.66666841506958008
vt 1 1
vt 0.74999827146530151 1
vt 0.74999827146530151 0.66666841506958008
vn 0 0 1
vn 0 0 1
vn 0 0 1
vn 0 0 1
vn 1 0 0
vn 1 0 0
vn 1 0 0
vn 1 0 0
vn 0 0 -1
vn 0 0 -1
vn 0 0 -1
vn 0 0 -1
vn -1 0 0
vn -1 0 0
vn -1 0 0
vn -1 0 0
vn 0 -1 0
vn 0 -1 0
vn 0 -1 0
vn 0 -1 0
vn 0 1 0
vn 0 1 0
vn 0 1 0
vn 0 1 0
f 18/18/18 17/17/17 20/20/20 19/19/19
f 24/24/24 21/21/21 22/22/22 23/23/23
f 1/1/1 3/3/3 4/4/4 2/2/2
f 5/5/5 7/7/7 8/8/8 6/6/6
f 9/9/9 11/11/11 12/12/12 10/10/10
f 13/13/13 15/15/15 16/16/16 14/14/14
